<?xml version="1.0" encoding="utf-8"?>
<!-- Generator: Adobe Illustrator 24.1.2, SVG Export Plug-In . SVG Version: 6.00 Build 0)  -->
<svg version="1.1" id="Layer_1" xmlns="http://www.w3.org/2000/svg" xmlns:xlink="http://www.w3.org/1999/xlink" x="0px" y="0px"
	 viewBox="0 0 1296 1728" style="enable-background:new 0 0 1296 1728;" xml:space="preserve">
<style type="text/css">
	.st0{fill:none;stroke:#fff;stroke-width:10;stroke-miterlimit:10;}
	.st1{stroke:#fff;stroke-width:10;stroke-miterlimit:10;}
	.st2{fill:none;}
	.st3{fill:#FFFFFF;}
	.st4{font-family:'BerlinSansFB-Reg';}
	.st5{font-size:150px;}
</style>
<path class="st0" d="M199.2,212.4c253.1-1.2,506.3-2.4,759.4-3.7"/>
<path class="st0" d="M807.3,257.6c17.3-0.3,42.6-1.3,73-4.4c64.5-6.7,147.1-22.8,145.9-33.2c-0.4-3.8-12.4-8.5-67.6-11.2"/>
<line class="st0" x1="812.7" y1="257.6" x2="474.9" y2="257.6"/>
<path class="st0" d="M461.4,310.2c96.4-0.9,192.8-1.8,289.2-2.7"/>
<path class="st0" d="M474.9,257.6c-38.7,6.7-65.5,19.8-64.9,29.7c0.6,9.9,28.7,19.5,67.5,21.5"/>
<path class="st0" d="M750.6,307.4c21.7-1.8,37.5,11.4,38,22c0.6,11.1-14.9,26.5-38,25.4"/>
<line class="st0" x1="750.6" y1="354.9" x2="666.8" y2="355"/>
<path class="st0" d="M666.8,355c-22.4,2.9-35.1,17.2-33.5,25.9c1.4,7.9,15.4,15.6,33.5,14.6"/>
<ellipse class="st1" cx="657.1" cy="434.3" rx="3.2" ry="6.4"/>
<rect x="212.7" y="68.1" class="st2" width="862.2" height="127"/>
<text transform="matrix(1 0 0 1 323.6224 171.7562)" class="st3 st4 st5">Dj Teenez. </text>
</svg>
